<svg width="32" height="32" viewBox="0 0 32 32" xmlns="http://www.w3.org/2000/svg">
    <g fill="none" fill-rule="evenodd">
        <rect fill="#b98524" width="32" height="32" rx="4"/>
        <path d="M15 7.25a7.75 7.75 0 0 1 5.985 12.674l3.545 3.546a.75.75 0 0 1-.976 1.133l-.084-.073-3.546-3.545A7.75 7.75 0 1 1 15 7.25zm0 1.5a6.25 6.25 0 1 0 0 12.5 6.25 6.25 0 0 0 0-12.5zm0 2.834a.75.75 0 0 1 .743.648l.007.102v1.916h1.917a.75.75 0 0 1 .102 1.494l-.102.006H15.75v1.917a.75.75 0 0 1-1.493.102l-.007-.102V15.75h-1.917a.75.75 0 0 1-.101-1.493l.101-.007h1.917v-1.916a.75.75 0 0 1 .75-.75z" fill="#FFF"/>
    </g>
</svg>
