<svg xmlns="http://www.w3.org/2000/svg" width="480" height="640" viewBox="0 0 480 640"><rect width="100%" height="100%" fill="#DDDDDD"/><path fill="#999999" d="M103.905 325.695h14.08v-15.14q0-2.14.29-4.73l-14.37 19.87Zm20.96 0h5.83v4.58q0 .64-.42 1.1-.42.46-1.18.46h-4.23v11.3h-6.88v-11.3h-19.52q-.8 0-1.41-.49-.6-.5-.76-1.23l-.84-4 21.92-29.28h7.49v28.86Zm26.02 11.78q1.95 0 3.42-.56t2.48-1.56q1.01-.99 1.52-2.36.51-1.38.51-2.98 0-3.81-2.11-5.76-2.11-1.95-5.82-1.95-3.71 0-5.83 1.95-2.11 1.95-2.11 5.76 0 1.6.51 2.98.52 1.37 1.52 2.36 1.01 1 2.48 1.56 1.48.56 3.43.56Zm0-35.17q-1.76 0-3.04.54-1.28.55-2.13 1.46-.85.91-1.25 2.09-.4 1.19-.4 2.5 0 1.38.34 2.67.33 1.3 1.13 2.31.8 1 2.12 1.61 1.31.61 3.23.61t3.23-.61q1.31-.61 2.11-1.61.8-1.01 1.14-2.31.33-1.29.33-2.67 0-1.31-.41-2.5-.42-1.18-1.25-2.09-.83-.91-2.11-1.46-1.28-.54-3.04-.54Zm7.81 16.7q4.22 1.38 6.24 4.21 2.01 2.83 2.01 6.93 0 3.07-1.17 5.57-1.16 2.49-3.28 4.25-2.11 1.76-5.07 2.72-2.96.96-6.54.96-3.59 0-6.55-.96t-5.07-2.72q-2.11-1.76-3.28-4.25-1.17-2.5-1.17-5.57 0-4.1 2.02-6.93t6.24-4.21q-3.36-1.41-5.04-4-1.68-2.59-1.68-6.24 0-2.62 1.07-4.89 1.07-2.28 2.99-3.96 1.92-1.68 4.6-2.62 2.67-.94 5.87-.94t5.87.94q2.67.94 4.59 2.62 1.92 1.68 2.99 3.96 1.08 2.27 1.08 4.89 0 3.65-1.68 6.24-1.68 2.59-5.04 4Zm46.27.99q0 6.05-1.3 10.52-1.29 4.46-3.58 7.37t-5.41 4.34q-3.12 1.42-6.74 1.42-3.61 0-6.7-1.42-3.09-1.43-5.36-4.34-2.27-2.91-3.55-7.37-1.28-4.47-1.28-10.52 0-6.08 1.28-10.52 1.28-4.45 3.55-7.36 2.27-2.92 5.36-4.34 3.09-1.42 6.7-1.42 3.62 0 6.74 1.42t5.41 4.34q2.29 2.91 3.58 7.36 1.3 4.44 1.3 10.52Zm-8.16 0q0-5.02-.74-8.32-.73-3.29-1.97-5.24-1.23-1.96-2.83-2.74-1.6-.78-3.33-.78-1.69 0-3.28.78-1.58.78-2.8 2.74-1.21 1.95-1.93 5.24-.72 3.3-.72 8.32 0 5.03.72 8.32.72 3.3 1.93 5.25 1.22 1.95 2.8 2.74 1.59.78 3.28.78 1.73 0 3.33-.78 1.6-.79 2.83-2.74 1.24-1.95 1.97-5.25.74-3.29.74-8.32Zm58.97 12.55-4.19 4.13-10.85-10.85-10.94 10.91-4.19-4.13 10.94-10.97-10.43-10.44 4.16-4.16 10.43 10.44 10.37-10.37 4.22 4.16-10.4 10.4 10.88 10.88Zm49.44-35.68-13.72 16.8-1.6 1.98q1.34-.67 2.89-1.04t3.35-.37q2.62 0 5.1.87 2.48.86 4.37 2.61 1.89 1.74 3.04 4.33 1.15 2.59 1.15 6.05 0 3.23-1.18 6.06-1.19 2.84-3.33 4.95-2.15 2.11-5.17 3.33-3.02 1.21-6.67 1.21-3.71 0-6.66-1.18-2.94-1.19-5.02-3.31-2.08-2.13-3.19-5.12-1.1-3-1.1-6.64 0-3.27 1.33-6.71t4.11-7.15l11.04-14.82q.58-.76 1.68-1.31 1.1-.54 2.54-.54h7.04Zm-11.93 40.32q1.89 0 3.47-.64 1.58-.64 2.72-1.79 1.14-1.16 1.78-2.71.64-1.55.64-3.37 0-1.99-.61-3.57-.61-1.59-1.73-2.69-1.12-1.1-2.69-1.68-1.57-.58-3.45-.58-1.89 0-3.43.64-1.53.64-2.62 1.78-1.09 1.14-1.7 2.69-.61 1.55-.61 3.34 0 1.92.53 3.51.53 1.58 1.57 2.7t2.58 1.74q1.53.63 3.55.63Zm27.33-11.49h14.08v-15.14q0-2.14.28-4.73l-14.36 19.87Zm20.96 0h5.82v4.58q0 .64-.42 1.1-.41.46-1.18.46h-4.22v11.3h-6.88v-11.3h-19.52q-.8 0-1.41-.49-.61-.5-.77-1.23l-.83-4 21.92-29.28h7.49v28.86Zm42.97-5.7q0 6.05-1.29 10.52-1.3 4.46-3.59 7.37t-5.41 4.34q-3.12 1.42-6.73 1.42-3.62 0-6.71-1.42-3.08-1.43-5.36-4.34-2.27-2.91-3.55-7.37-1.28-4.47-1.28-10.52 0-6.08 1.28-10.52 1.28-4.45 3.55-7.36 2.28-2.92 5.36-4.34 3.09-1.42 6.71-1.42 3.61 0 6.73 1.42 3.12 1.42 5.41 4.34 2.29 2.91 3.59 7.36 1.29 4.44 1.29 10.52Zm-8.16 0q0-5.02-.73-8.32-.74-3.29-1.97-5.24-1.23-1.96-2.83-2.74-1.6-.78-3.33-.78-1.7 0-3.28.78-1.59.78-2.8 2.74-1.22 1.95-1.94 5.24-.72 3.3-.72 8.32 0 5.03.72 8.32.72 3.3 1.94 5.25 1.21 1.95 2.8 2.74 1.58.78 3.28.78 1.73 0 3.33-.78 1.6-.79 2.83-2.74 1.23-1.95 1.97-5.25.73-3.29.73-8.32Z"/></svg>